<?xml version="1.0" encoding="UTF-8" standalone="no"?>
<!-- Created with Inkscape (http://www.inkscape.org/) -->

<svg
   width="212mm"
   height="96mm"
   viewBox="0 0 212 96"
   version="1.1"
   id="svg5"
   inkscape:version="1.2.1 (9c6d41e4, 2022-07-14)"
   sodipodi:docname="name.svg"
   xmlns:inkscape="http://www.inkscape.org/namespaces/inkscape"
   xmlns:sodipodi="http://sodipodi.sourceforge.net/DTD/sodipodi-0.dtd"
   xmlns="http://www.w3.org/2000/svg"
   xmlns:svg="http://www.w3.org/2000/svg">
  <sodipodi:namedview
     id="namedview7"
     pagecolor="#ffffff"
     bordercolor="#000000"
     borderopacity="0.25"
     inkscape:showpageshadow="2"
     inkscape:pageopacity="0.0"
     inkscape:pagecheckerboard="0"
     inkscape:deskcolor="#d1d1d1"
     inkscape:document-units="mm"
     showgrid="false"
     showguides="true"
     inkscape:zoom="0.83610318"
     inkscape:cx="551.96537"
     inkscape:cy="328.90678"
     inkscape:window-width="1512"
     inkscape:window-height="916"
     inkscape:window-x="0"
     inkscape:window-y="38"
     inkscape:window-maximized="1"
     inkscape:current-layer="layer1" />
  <defs
     id="defs2" />
  <g
     inkscape:label="Layer 1"
     inkscape:groupmode="layer"
     id="layer1">
    <g
       aria-label="Mountain"
       id="text113"
       style="font-size:50.8px;font-family:Blackout;-inkscape-font-specification:Blackout;stroke-width:0.264583"
       transform="translate(-36.391541,-61.390948)">
      <circle
         style="fill:#000000;stroke-width:0.304671"
         id="path465"
         cx="49.113846"
         cy="19.710943"
         r="15.659917"
         transform="translate(36.391541,61.390948)" />
      <circle
         style="fill:#ffffff;fill-opacity:1;stroke-width:0.304671"
         id="path465-5"
         cx="41.77116"
         cy="13.923719"
         r="15.659917"
         transform="translate(36.391541,61.390948)" />
      <path
         d="m 69.640999,65.406558 -7.150721,0.0321 7.150721,31.463879 c -29.715654,-0.205807 -13.21172,0 -29.125312,0 l 7.284094,-31.495976 h -0.0451 l 7.365994,21.251318 7.408328,-21.251318 v 0 z"
         style="font-size:42.3333px"
         id="path390"
         sodipodi:nodetypes="cccccccccc" />
      <path
         d="m 127.78187,84.329544 q -0.0423,2.497665 -0.93133,4.74133 -0.889,2.243665 -2.58233,4.021663 -1.73567,1.862666 -3.97934,2.836332 -2.20133,0.973665 -4.69899,0.973665 h -0.0423 q -2.45534,0 -4.699,-0.973665 -2.20133,-0.973666 -3.97933,-2.836332 -1.651,-1.777998 -2.58233,-4.021663 -0.889,-2.243665 -0.93134,-4.74133 V 65.364225 h 7.112 v 18.838319 q 0,1.142999 0.381,2.158998 0.42333,1.016 1.10066,1.777999 0.71967,0.761999 1.651,1.227666 0.93134,0.423333 1.98967,0.423333 1.05833,0 1.94733,-0.423333 0.93133,-0.465667 1.60867,-1.227666 0.71966,-0.761999 1.10066,-1.777999 0.42333,-1.015999 0.42333,-2.158998 V 65.364225 h 7.112 z"
         style="font-size:42.3333px"
         id="path394" />
      <path
         d="m 146.40848,65.406558 h 7.11199 v 31.495976 h -7.19666 l -8.88999,-17.610653 v 17.610653 h -7.112 V 65.406558 h 7.239 l 8.84766,17.56832 z"
         style="font-size:42.3333px"
         id="path396" />
      <path
         d="m 176.88839,65.406558 v 7.111995 h -7.15433 v 24.383981 h -7.112 V 72.518553 h -7.15432 v -7.111995 z"
         style="font-size:42.3333px"
         id="path398" />
      <path
         d="m 177.94666,96.902534 14.47258,-31.495976 -0.02,0.03336 15.18069,31.462615 c -29.52908,-0.05293 -0.0596,0.01349 -29.63331,0 z"
         style="font-size:42.3333px"
         id="path400"
         sodipodi:nodetypes="ccccc" />
      <path
         d="m 216.85088,65.406558 v 31.495976 h -7.11199 V 65.406558 Z"
         style="font-size:42.3333px"
         id="path402" />
      <path
         d="m 235.98548,65.406558 h 7.11199 v 31.495976 h -7.19666 l -8.88999,-17.610653 v 17.610653 h -7.112 V 65.406558 h 7.239 l 8.84766,17.56832 z"
         style="font-size:42.3333px"
         id="path404" />
    </g>
    <g
       aria-label="HARES"
       id="text473"
       style="font-size:71.9667px;font-family:Blackout;-inkscape-font-specification:Blackout;stroke-width:0.264583"
       transform="translate(-36.391541,-61.390948)">
      <path
         d="M 66.630635,100.67345 H 78.72104 v 53.54322 H 66.630635 v -20.7264 H 52.309262 v 20.7264 H 40.218857 v -53.54322 h 12.090405 v 20.72641 h 14.321373 z"
         id="path475"
         style="fill:#000000;fill-opacity:1" />
      <path
         d="m 82.319262,154.21667 24.730008,-53.41997 0.0539,-0.12325 25.59277,53.54322 c -49.47311,-0.27069 -1.24038,-0.0415 -50.376688,0 z"
         id="path477"
         sodipodi:nodetypes="ccccc"
         style="fill:#000000;fill-opacity:1" />
      <path
         d="m 157.95613,154.21667 -9.35567,-20.2946 h -0.14394 v 20.2946 h -12.0904 v -53.54322 h 16.26447 0.072 q 3.4544,0 6.477,1.2954 3.09457,1.2954 5.32554,3.59834 2.30293,2.23096 3.59833,5.25357 1.2954,3.0226 1.2954,6.477 0,4.89373 -2.51883,8.8519 -2.51884,3.8862 -6.62094,5.97324 l 10.14731,22.09377 z"
         id="path479"
         style="fill:#000000;fill-opacity:1" />
      <path
         d="M 206.74951,112.76386 H 186.0231 v 8.636 h 15.25694 v 12.09041 H 186.0231 v 8.636 h 20.72641 v 12.0904 h -32.81682 v -53.54322 h 32.81682 z"
         id="path481"
         style="fill:#000000;fill-opacity:1" />
      <path
         d="m 244.60395,137.59237 q 0,1.2954 -0.2159,2.51883 -0.14393,1.22344 -0.50377,2.44687 -0.79163,2.51883 -2.30293,4.67784 -1.5113,2.159 -3.59834,3.74226 -2.08703,1.5113 -4.60587,2.3749 -2.51883,0.8636 -5.32553,0.8636 -3.4544,0 -6.477,-1.2954 -2.95064,-1.2954 -5.25357,-3.52636 -2.23097,-2.30294 -3.52637,-5.32554 -1.2954,-3.0226 -1.2954,-6.477 h 12.0904 q 0,1.87113 1.2954,3.2385 1.2954,1.2954 3.16654,1.2954 1.5113,0 2.66277,-0.8636 1.15146,-0.93557 1.58326,-2.30294 0.2159,-0.57573 0.2159,-1.2954 0,-1.87113 -1.2954,-3.0226 -1.2954,-1.15146 -3.16653,-1.15146 -3.4544,0 -6.477,-1.22344 -2.95064,-1.2954 -5.25357,-3.4544 -2.23097,-2.23097 -3.52637,-5.1816 -1.2954,-2.95064 -1.2954,-6.40504 0,-1.22343 0.14393,-2.44687 0.2159,-1.22343 0.57573,-2.44686 0.79164,-2.51884 2.30294,-4.67784 1.5113,-2.159 3.59833,-3.6703 2.08704,-1.58327 4.60587,-2.44687 2.51884,-0.8636 5.32554,-0.8636 3.4544,0 6.40503,1.2954 3.02261,1.2954 5.25357,3.59834 2.30294,2.23096 3.59834,5.25357 1.2954,3.0226 1.2954,6.40503 h -12.09041 q 0,-1.87113 -1.2954,-3.16653 -1.2954,-1.2954 -3.16653,-1.2954 -1.5113,0 -2.66277,0.93556 -1.15147,0.8636 -1.58327,2.23097 -0.2159,0.50377 -0.2159,1.2954 0,1.87114 1.2954,3.0226 1.2954,1.15147 3.16654,1.15147 3.4544,0 6.40503,1.2954 3.02261,1.22344 5.25357,3.4544 2.30294,2.159 3.59834,5.10964 1.2954,2.95063 1.2954,6.33307 z"
         id="path483"
         style="fill:#000000;fill-opacity:1" />
      <path
         style="fill:#ffffff;fill-opacity:1;stroke:#000000;stroke-width:0.0700042;stroke-opacity:1"
         d="m 107.21417,103.13107 8.56132,18.17636 -5.13679,-5.92707 1.58055,9.21989 -3.42453,-6.71735 -0.79028,10.4053 -2.63425,-10.27359 -2.23912,8.03448 -0.26342,-7.50763 -5.531938,5.92707 z"
         id="path540" />
      <path
         style="font-size:71.9667px;font-family:Blackout;-inkscape-font-specification:Blackout;fill:#ffffff;fill-opacity:1;stroke:#000000;stroke-width:0.0700042;stroke-opacity:1"
         d="m 192.54759,67.631239 8.56132,18.17636 -5.13679,-5.92707 1.58055,9.21989 -3.42453,-6.71735 -0.79028,10.4053 -2.63425,-10.27359 -2.23912,8.03448 -0.26342,-7.50763 -5.53194,5.92707 z"
         id="path540-5" />
    </g>
    <path
       style="fill:#ffffff;fill-opacity:1;stroke:#000000;stroke-width:0.264583;stroke-opacity:1"
       d="m 25.987024,6.408999 2.743351,11.953171 -1.632947,-3.265893 0.26127,4.115025 -1.632947,-3.527165 0.06532,4.180345 -1.306357,-4.245663 -2.939304,3.592483 z"
       id="path2857" />
    <circle
       style="display:inline;fill:none;stroke:#000000;stroke-width:1;stroke-dasharray:none;stroke-opacity:1"
       id="path465-9"
       cx="49.365917"
       cy="19.619787"
       r="15.659917" />
    <path
       style="fill:#ffffff;fill-opacity:1;stroke:#000000;stroke-width:0.264583;stroke-opacity:1"
       d="m 11.551774,6.213045 3.39653,10.254906 -1.8289,-2.41676 0.522544,3.527163 -1.306359,-3.004621 -0.391906,3.527165 -0.65318,-3.657801 -2.2208063,3.396531 z"
       id="path2859" />
  </g>
</svg>
